<svg
   viewBox="0 0 128 128"
   version="1.1"
   xmlns="http://www.w3.org/2000/svg">
	<circle
		style="fill:#ffffff;fill-opacity:1"
		cx="64"
		cy="64"
		r="64" />
	<path
		style="display:inline;fill:none;fill-rule:evenodd;stroke:currentColor;stroke-width:24.87565"
		transform="matrix(-0.29689373,0,0,0.27650531,102.79999,-31.583157)"
		d="m 140,355 c 3.0083,-4.76315 7.90482,1.70516 7.91667,5 0.0321,8.92879 -10.54992,12.75482 -17.91666,10.83334 -13.17738,-3.43707 -18.13745,-18.96923 -13.75002,-30.83333 6.43874,-17.41103 27.49074,-23.64635 43.74999,-16.66669 21.67102,9.30279 29.20705,36.04696 19.58337,56.66666 -12.11042,25.94778 -44.61932,34.79413 -69.58332,22.50004 -30.23475,-14.8898 -40.396432,-53.20071 -25.416717,-82.49999 17.653077,-34.52818 61.787707,-46.00826 95.416647,-28.33339 38.82595,20.40634 51.62645,70.37845 31.25007,108.33332 C 188.09708,443.12669 132.2782,457.24905 90.000049,434.1667 42.570353,408.27178 27.12507,346.59956 52.916635,300.00005 81.550162,248.26576 149.08052,231.49677 199.99994,259.99997" />
</svg>
